<svg xmlns="http://www.w3.org/2000/svg" xmlns:xlink="http://www.w3.org/1999/xlink" style="display:none">
  
  <!-- LinkedIn Icon -->
  <symbol id="linkedin" viewBox="0 0 256 256">
    <path d="M218.123 218.127h-37.931v-59.403c0-14.165-.253-32.4-19.728-32.4-19.756 0-22.779 15.434-22.779 31.369v60.43h-37.93V95.967h36.413v16.694h.51a39.907 39.907 0 0 1 35.928-19.733c38.445 0 45.533 25.288 45.533 58.186l-.016 67.013ZM56.955 79.27c-12.157.002-22.014-9.852-22.016-22.009-.002-12.157 9.851-22.014 22.008-22.016 12.157-.003 22.014 9.851 22.016 22.008A22.013 22.013 0 0 1 56.955 79.27m18.966 138.858H37.95V95.967h37.97v122.16ZM237.033.018H18.89C8.58-.098.125 8.161-.001 18.471v219.053c.122 10.315 8.576 18.582 18.89 18.474h218.144c10.336.128 18.823-8.139 18.966-18.474V18.454c-.147-10.33-8.635-18.588-18.966-18.453" fill="#0A66C2"/>
  </symbol>
  <!-- GitHub Icon -->
  <symbol id="github" viewBox="0 0 1024 1024">
    <path fill-rule="evenodd" clip-rule="evenodd" d="M8 0C3.58 0 0 3.58 0 8C0 11.54 2.29 14.53 5.47 15.59C5.87 15.66 6.02 15.42 6.02 15.21C6.02 15.02 6.01 14.39 6.01 13.72C4 14.09 3.48 13.23 3.32 12.78C3.23 12.55 2.84 11.84 2.5 11.65C2.22 11.5 1.82 11.13 2.49 11.12C3.12 11.11 3.57 11.7 3.72 11.94C4.44 13.15 5.59 12.81 6.05 12.6C6.12 12.08 6.33 11.73 6.56 11.53C4.78 11.33 2.92 10.64 2.92 7.58C2.92 6.71 3.23 5.99 3.74 5.43C3.66 5.23 3.38 4.41 3.82 3.31C3.82 3.31 4.49 3.1 6.02 4.13C6.66 3.95 7.34 3.86 8.02 3.86C8.7 3.86 9.38 3.95 10.02 4.13C11.55 3.09 12.22 3.31 12.22 3.31C12.66 4.41 12.38 5.23 12.3 5.43C12.81 5.99 13.12 6.7 13.12 7.58C13.12 10.65 11.25 11.33 9.47 11.53C9.76 11.78 10.01 12.26 10.01 13.01C10.01 14.08 10 14.94 10 15.21C10 15.42 10.15 15.67 10.55 15.59C13.71 14.53 16 11.53 16 8C16 3.58 12.42 0 8 0Z" transform="scale(64)" fill="#fff"/>
  </symbol>
  
  <!-- Verified Icon -->
  <symbol id="verified" viewBox="0 0 20 20">
    <path fill-rule="evenodd" d="M10 18a8 8 0 100-16 8 8 0 000 16zm3.707-8.707a1 1 0 00-1.414-1.414L9 11.172l-1.293-1.293a1 1 0 00-1.414 1.414l2 2a1 1 0 001.414 0l4-4z" clip-rule="evenodd" />
  </symbol>
  <!-- calensario -->
  <symbol id="calendario" viewBox="0 0 640 640">
    <path d="M216 64C229.3 64 240 74.7 240 88L240 128L400 128L400 88C400 74.7 410.7 64 424 64C437.3 64 448 74.7 448 88L448 128L480 128C515.3 128 544 156.7 544 192L544 480C544 515.3 515.3 544 480 544L160 544C124.7 544 96 515.3 96 480L96 192C96 156.7 124.7 128 160 128L192 128L192 88C192 74.7 202.7 64 216 64zM216 176L160 176C151.2 176 144 183.2 144 192L144 240L496 240L496 192C496 183.2 488.8 176 480 176L216 176zM144 288L144 480C144 488.8 151.2 496 160 496L480 496C488.8 496 496 488.8 496 480L496 288L144 288z"/>
  </symbol>
  <symbol id="eliminar" viewBox="0 0 448 512">
    <path d="M136.7 5.9L128 32 32 32C14.3 32 0 46.3 0 64S14.3 96 32 96l384 0c17.7 0 32-14.3 32-32s-14.3-32-32-32l-96 0-8.7-26.1C306.9-7.2 294.7-16 280.9-16L167.1-16c-13.8 0-26 8.8-30.4 21.9zM416 144L32 144 53.1 467.1C54.7 492.4 75.7 512 101 512L347 512c25.3 0 46.3-19.6 47.9-44.9L416 144z" fill="gray"/>
  </symbol>

</svg>